HIERARCHY
ROOT Hips
{
  OFFSET 0 0 0
  CHANNELS 6 Xposition Yposition Zposition Zrotation Xrotation Yrotation
  JOINT Spine
  {
    OFFSET 0 9.9235 -1.22729
    CHANNELS 3 Zrotation Xrotation Yrotation
    JOINT Spine1
    {
      OFFSET -9.9969e-05 11.6454 -1.4223
      CHANNELS 3 Zrotation Xrotation Yrotation
      JOINT Spine2
      {
        OFFSET 9.98118e-05 13.3602 -1.6265
        CHANNELS 3 Zrotation Xrotation Yrotation
        JOINT Neck
        {
          OFFSET 0 15.0325 0.7929
          CHANNELS 3 Zrotation Xrotation Yrotation
          JOINT Head
          {
            OFFSET 0 10.3218 3.1424
            CHANNELS 3 Zrotation Xrotation Yrotation
            End Site
            {
              OFFSET 0.0002 18.4747 6.6364
            }
          }
        }
        JOINT LeftShoulder
        {
          OFFSET 6.1058 9.1104 0.7056
          CHANNELS 3 Zrotation Xrotation Yrotation
          JOINT LeftArm
          {
            OFFSET 12.655 -0.265904 -2.60091
            CHANNELS 3 Zrotation Xrotation Yrotation
            JOINT LeftForeArm
            {
              OFFSET 27.4047 0 0
              CHANNELS 3 Zrotation Xrotation Yrotation
              JOINT LeftHand
              {
                OFFSET 27.6145 -1.98104e-05 0
                CHANNELS 3 Zrotation Xrotation Yrotation
                End Site
                {
                  OFFSET 12.7755 0 0
                }
              }
            }
          }
        }
        JOINT RightShoulder
        {
          OFFSET -6.1057 9.1105 0.7056
          CHANNELS 3 Zrotation Xrotation Yrotation
          JOINT RightArm
          {
            OFFSET -12.655 -0.265999 -2.6009
            CHANNELS 3 Zrotation Xrotation Yrotation
            JOINT RightForeArm
            {
              OFFSET -27.4047 0 0
              CHANNELS 3 Zrotation Xrotation Yrotation
              JOINT RightHand
              {
                OFFSET -27.6145 0 0
                CHANNELS 3 Zrotation Xrotation Yrotation
                End Site
                {
                  OFFSET -12.7755 0 0
                }
              }
            }
          }
        }
      }
    }
  }
  JOINT RightUpLeg
  {
    OFFSET -9.12449 -6.6564 -0.0554004
    CHANNELS 3 Zrotation Xrotation Yrotation
    JOINT RightLeg
    {
      OFFSET -0.245231 -40.5954 -0.51698
      CHANNELS 3 Zrotation Xrotation Yrotation
      JOINT RightFoot
      {
        OFFSET 0.244701 -42.0479 -2.0602
        CHANNELS 3 Zrotation Xrotation Yrotation
        JOINT RightToe
        {
          OFFSET -0.373402 -10.4922 12.6407
          CHANNELS 3 Zrotation Xrotation Yrotation
          End Site
          {
            OFFSET 0 0 9.9925
          }
        }
      }
    }
  }
  JOINT LeftUpLeg
  {
    OFFSET 9.1245 -6.6564 -0.055401
    CHANNELS 3 Zrotation Xrotation Yrotation
    JOINT LeftLeg
    {
      OFFSET 0.245022 -40.5954 -0.518725
      CHANNELS 3 Zrotation Xrotation Yrotation
      JOINT LeftFoot
      {
        OFFSET -0.244696 -42.048 -2.0576
        CHANNELS 3 Zrotation Xrotation Yrotation
        JOINT LeftToe
        {
          OFFSET 0.373399 -10.4922 12.6407
          CHANNELS 3 Zrotation Xrotation Yrotation
          End Site
          {
            OFFSET 0 0 9.9925
          }
        }
      }
    }
  }
}
MOTION
Frames:	14
Frame Time:	0.0416667
-0.719032 90.7292 199.889 -179.476 -59.4599 45.3121 10.9999 7.26483 1.70514 7.17957 1.06862 1.09964 7.16386 1.07633 1.18339 3.96374 -12.9871 -2.19753 -0.871018 -19.5323 -14.8447 19.1017 -2.42829 -24.8256 71.2152 -27.6903 3.24281 -1.47044e-15 -3.97569e-16 -8.87531 57.1287 -24.78 -24.1752 -17.1015 -2.49581 22.0885 14.5171 -53.2991 34.2773 -0.000267201 0 64.4143 -112.559 38.9357 41.8585 -135.557 -48.692 -113.864 0.21791 22.513 1.63175 -5.46166 -19.3163 -2.0364 -0.0578845 -10.0787 -0.0090801 -11.5163 -21.2162 2.06481 0.517982 33.9757 -0.594018 -16.986 -4.88965 0.511185 -3.98913e-15 0.484095 1.59033e-15 
-0.898996 86.6311 211.292 169.659 -71.7006 31.002 11.8894 8.29122 1.24048 6.99803 1.72246 0.887342 6.9849 1.72795 0.965754 3.73801 -11.9013 -2.377 -0.118486 -17.1307 -15.0678 20.2303 -2.63404 -24.0701 67.2324 -16.2458 5.65828 -4.15208e-16 0 -16.7607 49.1026 -16.5669 -6.94757 -17.8465 -2.54638 22.976 16.1762 -51.5438 34.6227 0.000215094 -6.36111e-15 56.1619 -104.697 39.2446 28.3839 -149.872 -48.613 -129.416 0.342972 47.8952 0.67226 -15.6322 -27.4769 -4.38214 5.22257e-16 -9.32494 3.22315e-15 -11.8676 -29.1407 1.47432 0.374501 37.1903 6.05881 -16.4956 -9.82027 1.82288 8.94324e-18 -0.0920611 5.56598e-15 
-0.364464 84.6099 221.889 136.645 -79.5001 -3.97065 12.9742 9.68309 0.461345 6.54952 2.22861 0.453522 6.54374 2.22896 0.526426 2.30384 -11.183 -2.25377 -1.27714 -15.303 -14.7828 16.2206 -1.54166 -20.2916 65.7565 -13.5873 4.9513 5.12925e-16 5.40446e-16 -16.7465 42.6765 -17.2 3.78236 -17.3266 -2.32672 23.6306 13.7073 -50.7808 43.1368 8.11611e-05 -3.18055e-15 29.2287 -92.1883 27.4589 13.655 -156.234 -48.4255 -137.757 0.139741 58.695 -2.87723 -14.2743 -26.1121 -3.66773 4.86255e-16 -8.63761 3.21704e-15 -13.7575 -38.6062 -0.469029 0.78486 38.315 6.00703 -13.6943 -14.962 5.66653 -6.33877e-15 -0.990458 1.29229e-15 
0.736959 84.5389 231.624 77.2287 -78.9157 -62.4011 13.653 11.4117 -0.360574 6.35721 2.97109 0.0323442 6.35955 2.9654 0.102415 1.26233 -10.4218 -2.05893 -2.90401 -14.3342 -14.331 10.6795 -0.183954 -16.6334 64.4838 -17.9596 0.666977 -4.32445e-16 4.77083e-15 -14.2092 37.776 -23.0555 5.34918 -14.4928 -1.63734 23.7173 8.16502 -52.1481 43.6787 2.31925e-15 -3.18055e-15 12.271 -73.1095 12.3743 -1.79286 -155.004 -48.5982 -137.638 -0.387985 60.5871 -6.19616 -11.1526 -20.1691 -2.38184 -5.1837e-16 -8.38256 -3.2149e-15 -15.8412 -45.2585 -3.04713 1.21106 37.8629 5.70165 -12.6496 -15.3189 7.4335 -9.43435e-15 -1.54611 3.97714e-15 
2.21415 85.2716 240.749 46.3388 -71.0953 -90.9086 13.5437 12.8704 -0.958167 6.28874 3.77649 -0.265783 6.29777 3.76649 -0.198324 1.36165 -9.10822 -1.96162 -3.38772 -13.1715 -13.5603 7.48391 0.440673 -15.4298 59.4022 -23.4684 -5.53701 4.53251e-16 1.59028e-15 -15.9083 29.5257 -21.7265 -0.721407 -9.66444 -0.44324 22.4043 0.138698 -51.6364 24.6645 0.000110675 -3.18055e-15 24.09 -58.8821 2.71615 -14.998 -148.355 -50.9895 -131.474 -0.770833 58.7864 -8.72053 -8.21419 -12.3289 -2.28893 8.74697e-16 -7.92555 6.42246e-15 -15.9254 -47.4776 -3.5028 1.75509 36.4235 5.97131 -9.84043 -12.2903 14.5926 -2.02602e-16 -2.43171 -4.77513e-15 
3.7488 85.9431 249.343 35.0211 -61.7245 -100.084 12.7959 13.3955 -1.70299 6.02259 4.23389 -0.712413 6.04137 4.21927 -0.651738 1.79899 -7.13176 -1.82537 -3.63516 -10.7629 -12.0284 5.8713 0.629935 -15.6798 51.3057 -25.6255 -12.2585 9.59042e-15 -1.59028e-15 -20.4492 21.747 -11.4847 -7.14433 -3.25179 0.983636 19.5344 -1.16602 -51.1579 3.83954 9.70095e-05 0 48.9684 -45.1529 -4.48691 -22.8484 -139.099 -54.442 -122.728 -1.03084 53.7738 -8.84282 -5.79205 -3.7355 -5.15014 4.24111e-16 -7.59529 3.20871e-15 -14.0597 -47.1692 -1.28651 2.20423 34.5752 6.49575 -8.6189 -4.10932 21.4741 6.38411e-15 -1.65685 7.95471e-16 
5.03722 86.2208 257.372 28.5631 -52.3691 -103.847 11.8549 13.2178 -2.68837 5.59176 4.28661 -1.32816 5.62289 4.26729 -1.27739 2.22664 -4.7351 -1.6116 -4.70618 -7.05695 -9.97294 3.64268 0.983503 -15.6962 43.1076 -24.6648 -14.9549 7.8145e-15 1.59028e-15 -25.5896 16.5496 -0.478895 -7.80177 4.43887 2.3014 15.8481 0.0375504 -50.5409 -1.39152 2.24493e-05 -3.18055e-15 53.4834 -31.9924 -15.7519 -21.1067 -125.39 -56.7394 -110.509 -1.13793 47.8098 -8.88155 -3.3082 4.17962 -7.44285 4.35906e-16 -7.83142 3.2105e-15 -11.9477 -44.4148 2.08771 2.47539 32.0735 6.5992 -11.9585 5.53175 26.1789 -1.1128 -1.95242 -0.0172237 
6.02295 85.9174 265.056 23.0277 -42.6126 -105.819 10.9338 13.1521 -3.38722 5.18941 4.01231 -1.79503 5.22971 3.99163 -1.74918 2.66454 -2.44376 -1.35153 -5.87202 -3.4317 -7.4989 0.722424 1.45098 -14.778 35.9407 -22.7616 -12.7331 3.81036e-15 0 -33.4142 12.4111 5.21558 -1.62772 12.0505 3.29471 12.6416 0.546008 -48.4934 1.78296 6.67444e-06 6.36111e-15 42.5725 -17.7216 -27.1571 -13.8128 -107.811 -56.6794 -95.4386 -1.15648 41.8465 -9.1217 -0.864276 11.149 -9.23395 -9.33932e-16 -8.35243 -6.4293e-15 -9.28654 -39.478 5.29028 2.93675 31.59 7.52654 -16.1189 2.85422 29.7065 -4.61697 -6.75033 -0.137525 
6.97904 85.2958 272.015 18.8155 -33.1874 -106.129 9.68336 13.4719 -3.76841 4.7872 3.49421 -2.10716 4.83477 3.47924 -2.05746 2.78434 -0.956255 -0.869753 -5.72683 -1.97928 -4.55014 -1.91958 1.65222 -12.6276 29.2538 -21.1962 -10.1098 4.50351e-15 0 -45.0702 11.0115 6.90341 6.84193 17.0997 3.89017 10.8004 0.881956 -48.1446 0.456537 8.72626e-05 3.18055e-15 38.702 -6.26258 -29.4014 -6.80886 -89.427 -54.2726 -79.6271 -1.28393 34.4511 -9.31428 2.76964 18.1364 -13.3463 9.82551e-16 -7.79444 6.42043e-15 -3.21448 -34.2444 9.86863 3.07284 34.422 8.52532 -23.9418 -13.8414 27.3354 -0.0218679 -5.77073 -0.0217401 
8.21153 85.5654 277.455 16.5619 -26.074 -103.665 7.86549 13.8424 -4.15982 4.13653 2.89486 -2.4434 4.19247 2.88793 -2.3914 2.65823 -0.552982 -0.207941 -4.63694 -2.7069 -1.93642 -4.21299 1.55674 -9.34895 20.4171 -20.4815 -10.9448 -3.01002e-15 0 -58.1075 12.1041 9.53445 14.2371 18.3982 4.11858 10.0338 5.7736 -50.6736 -5.57621 0.000108254 0 41.8473 -0.500674 -27.4803 -1.38735 -73.5376 -49.1648 -64.8954 -1.31573 24.7025 -9.56141 7.67762 23.9592 -17.2052 7.45443e-17 -6.73604 -0 3.00453 -33.7495 16.2517 2.32613 38.9632 8.52363 -25.7961 -17.7714 21.0978 -1.13745e-21 -7.58303e-22 -3.18055e-15 
9.37805 87.1969 281.603 15.6638 -21.126 -98.1939 6.24809 13.9558 -4.53785 3.24016 2.38855 -2.69296 3.30181 2.3863 -2.65297 2.50253 -0.796918 0.277623 -4.11325 -3.35988 -0.627833 -6.8124 1.40637 -6.1902 7.68916 -19.9496 -13.1045 0.00147812 -6.36111e-15 -69.324 15.971 13.4747 19.9633 17.201 4.12083 9.58061 14.2549 -55.5543 -11.6189 1.64389e-06 3.18055e-15 44.1524 4.00076 -27.8054 4.6725 -63.4291 -42.4943 -54.5364 -0.808577 19.0954 -9.69547 12.152 23.6401 -11.3021 1.4346e-15 -9.49638 9.67424e-15 5.69318 -34.601 19.8038 1.55504 40.6756 9.18268 -21.9254 -14.6774 12.9581 -4.15003e-17 -0.597591 -6.36146e-15 
10.0031 89.5734 285.114 15.3891 -16.6095 -91.6831 5.65257 13.7234 -4.82515 2.51182 1.97165 -2.78802 2.57387 1.96927 -2.76826 2.41309 -1.10572 0.530241 -4.95157 -2.6161 -0.0583864 -10.1191 1.34905 -4.15226 -7.29432 -17.0916 -12.6776 0.00373189 -1.19271e-15 -77.0844 24.1413 14.5293 23.5859 15.3997 4.06299 9.22584 23.269 -57.7343 -16.597 0.00281293 1.90833e-14 44.0598 9.65155 -32.051 9.82756 -57.0927 -38.0654 -46.891 0.218314 20.8894 -4.34582 17.7564 11.6433 -2.86965 -7.95139e-16 -10.9883 -0 5.45054 -34.0435 19.0101 1.10702 37.3217 9.47043 -17.7305 -11.2478 8.32795 9.12938e-17 -1.64415 3.18186e-15 
10.2389 91.8535 288.117 14.9894 -11.9954 -85.6323 5.77651 13.313 -5.16009 2.35287 1.61144 -2.93172 2.41734 1.60752 -2.92283 2.4401 -1.35513 0.793055 -6.1176 -1.48686 1.22692 -13.7181 1.32831 -2.94694 -20.8515 -10.8766 -8.3966 -2.41532e-14 4.77083e-15 -80.7346 34.6572 11.2622 24.138 13.8842 4.05278 9.21846 31.2987 -55.0197 -20.0425 0.000572554 0 43.9884 12.5512 -32.7707 9.84334 -49.831 -36.0767 -38.1693 0.287734 26.0887 4.45398 22.2766 -3.08437 1.37314 -1.26687e-15 -9.73915 -1.61353e-15 4.39848 -32.7237 15.6442 0.897311 32.6868 9.60668 -14.3274 -8.26899 5.38598 1.29251e-16 -1.65648 3.18188e-15 
10.2893 93.5509 290.646 13.9684 -7.83316 -79.0801 6.03162 13.0369 -5.51465 2.50676 1.43303 -3.12774 2.57357 1.42847 -3.11867 2.64751 -1.68177 1.08 -6.59682 -1.42877 3.06961 -16.5971 1.30674 -2.06804 -31.8057 -2.10987 -3.77836 -3.23108e-14 -1.98785e-15 -79.425 41.2322 6.12107 22.5785 12.8431 4.05868 9.39374 38.7347 -47.7739 -21.2103 5.79114e-15 3.18055e-15 44.4584 11.4001 -25.0823 5.40127 -41.5913 -35.2113 -29.548 0.613664 32.5166 4.5754 25.2793 -12.1672 9.35867 -1.67405e-15 -11.8993 -4.063e-16 3.65327 -31.4127 11.9991 1.01569 29.0624 9.55253 -11.7302 -5.86925 1.91057 -1.89424e-37 -1.13745e-21 -9.54166e-15 
